<?xml version="1.0" encoding="UTF-8"?>
<svg width="256px" height="256px" viewBox="0 0 256 256" version="1.1" xmlns="http://www.w3.org/2000/svg" xmlns:xlink="http://www.w3.org/1999/xlink">
    <!-- Generator: Sketch 45.2 (43514) - http://www.bohemiancoding.com/sketch -->
    <title>Like </title>
    <desc>Created with Sketch.</desc>
    <defs>
        <path d="M176.114747,94.4217491 C184.106378,100.18714 188.273443,110.519178 186.618033,120.794132 L171.376851,218.006618 C168.57978,240.896933 151.169441,245.691912 137.012837,245.691912 L27.2525343,245.691912 C12.4109334,245.691912 0.366403455,233.647382 0.366403455,218.805781 L0.366403455,115.233993 L0.366403455,115.233993 C0.366403455,112.245763 2.2728452,109.590625 5.10429912,108.635436 L5.10429912,108.635436 C6.75970844,108.178771 19.4892353,104.297122 32.3900115,95.1067461 C50.7136802,82.0918038 60.4178039,64.6814643 60.4178039,44.7594693 L60.4178039,17.3476926 L60.4178672,17.3476926 C60.4178672,8.16086403 67.8652633,0.713468006 77.0520918,0.713468006 C80.596605,0.713468006 84.048447,1.84569222 86.9043531,3.9450669 C86.9043531,3.9450669 86.9043531,3.9450669 86.9043531,3.9450669 C94.2109874,9.31087644 97.9213876,19.3004155 97.9213876,33.6282686 L97.9213876,84.2609608 C97.9213876,87.1151148 100.261794,89.4555211 103.115948,89.4555211 L160.531066,89.4555211 C166.182291,89.398438 171.5481,91.1109304 176.114747,94.4217491 Z" id="path-1"></path>
    </defs>
    <g id="Emoji" stroke="none" stroke-width="1" fill="none" fill-rule="evenodd">
        <g id="Like-">
            <g id="Like">
                <rect id="Bounds" x="0" y="0" width="256" height="256"></rect>
                <g id="Icon" transform="translate(5.000000, 5.000000)">
                    <path d="M34.1485321,245.598907 L15,245.598907 L15,245.598907 C6.71572875,245.598907 2.79088747e-15,238.883178 1.77635684e-15,230.598907 L0,124.741176 L1.77635684e-15,124.741176 C7.61826213e-16,116.456904 6.71572875,109.741176 15,109.741176 L34.1485321,109.741176 L34.1485321,109.741176 C42.4328033,109.741176 49.1485321,116.456904 49.1485321,124.741176 L49.1485321,230.598907 L49.1485321,230.598907 C49.1485321,238.883178 42.4328033,245.598907 34.1485321,245.598907 Z" id="Path" fill="#5784F1"></path>
                    <g id="Group-2" transform="translate(59.000000, 0.000000)">
                        <mask id="mask-2" fill="white">
                            <use xlink:href="#path-1"></use>
                        </mask>
                        <use id="Path" fill="#FFE554" xlink:href="#path-1"></use>
                        <path d="M186.839464,122.218514 C187.640255,117.312882 184.312623,112.686912 179.406991,111.886122 C174.501358,111.085331 169.875389,114.412963 169.074598,119.318595 L154.319721,209.706793 C153.405371,219.085539 151.861782,223.070536 149.561185,224.750676 C146.967429,226.644913 141.551272,227.553711 130.282227,227.553711 L72.7489737,227.553711 C67.778411,227.553711 63.7489737,231.583148 63.7489737,236.553711 C63.7489737,241.524274 67.778411,245.553711 72.7489737,245.553711 L130.282227,245.553711 C145.221989,245.553711 153.497398,244.165148 160.177097,239.286921 C167.562355,233.89342 170.822788,225.574588 172.177384,212.038236 L186.839464,122.218514 Z" id="Path" fill="#FFC83E" fill-rule="nonzero" mask="url(#mask-2)"></path>
                        <path d="M104.93457,82.7851562 L97.5,8 C97.5,3.02943725 93.4705627,-1 88.5,-1 C83.5294373,-1 79.5,3.02943725 79.5,8 L79.5,82.7851562 C79.5,87.755719 83.5294373,91.2724609 88.5,91.2724609 C93.4705627,91.2724609 104.93457,87.755719 104.93457,82.7851562 Z" id="Line" fill="#FFC83E" fill-rule="nonzero" mask="url(#mask-2)"></path>
                    </g>
                </g>
            </g>
        </g>
    </g>
</svg>