<?xml version="1.0" encoding="UTF-8"?>
<svg width="256px" height="256px" viewBox="0 0 256 256" version="1.1" xmlns="http://www.w3.org/2000/svg" xmlns:xlink="http://www.w3.org/1999/xlink">
    <!-- Generator: Sketch 45.2 (43514) - http://www.bohemiancoding.com/sketch -->
    <title>Surprised</title>
    <desc>Created with Sketch.</desc>
    <defs>
        <circle id="path-1" cx="128" cy="128" r="128"></circle>
        <circle id="path-3" cx="26.5" cy="26.5" r="26.5"></circle>
    </defs>
    <g id="Emoji" stroke="none" stroke-width="1" fill="none" fill-rule="evenodd">
        <g id="Surprised">
            <g>
                <mask id="mask-2" fill="white">
                    <use xlink:href="#path-1"></use>
                </mask>
                <use id="Base" fill="#FFE554" xlink:href="#path-1"></use>
                <circle id="Eyes" fill="#FFFFFF" mask="url(#mask-2)" transform="translate(83.500000, 103.500000) scale(-1, 1) translate(-83.500000, -103.500000) " cx="83.5" cy="103.5" r="22.5"></circle>
                <circle id="Eyes" fill="#FFFFFF" mask="url(#mask-2)" transform="translate(172.500000, 103.500000) scale(-1, 1) translate(-172.500000, -103.500000) " cx="172.5" cy="103.5" r="22.5"></circle>
                <path d="M26.1014933,205.559067 C50.150336,237.22161 87.5493649,256.198961 128.079816,256.198961 C198.763691,256.198961 256.064486,198.898475 256.064486,128.214291 C256.064486,89.126354 238.420656,52.9134653 208.644236,28.7638583 C204.783739,25.6328748 199.116024,26.2242622 195.985041,30.084759 C192.854057,33.9452559 193.445444,39.6129706 197.305941,42.7439542 C222.912033,63.5112943 238.064486,94.6107835 238.064486,128.214291 C238.064486,188.957328 188.822588,238.198961 128.079816,238.198961 C93.2372919,238.198961 61.1163081,221.899843 40.4356161,194.671784 C37.429176,190.713526 31.783172,189.941924 27.8249133,192.948364 C23.8666546,195.954804 23.0950532,201.600808 26.1014933,205.559067 Z" id="Shadow" fill="#FFC83E" fill-rule="nonzero" mask="url(#mask-2)"></path>
                <path d="M80.3773533,23.9709597 C60.4052818,34.1751564 43.2563424,49.2584819 30.5589032,67.7404084 C28.5261153,70.69926 29.2768382,74.7457833 32.2356897,76.7785712 C35.1945412,78.8113592 39.2410646,78.0606363 41.2738525,75.1017848 C52.7487589,58.3993322 68.2489969,44.7661196 86.2920732,35.5474916 C89.4888441,33.9141868 90.7562839,29.9986367 89.1229792,26.8018657 C87.4896744,23.6050947 83.5741243,22.3376549 80.3773533,23.9709597 Z" id="Highlight" fill="#FFF6C2" fill-rule="nonzero" mask="url(#mask-2)"></path>
                <circle id="Oval" fill="#B2093B" fill-rule="nonzero" cx="83.8164062" cy="103.816406" r="6.81640625"></circle>
                <circle id="Oval" fill="#B2093B" fill-rule="nonzero" cx="172.816406" cy="103.816406" r="6.81640625"></circle>
                <g id="Group" transform="translate(102.000000, 148.000000)">
                    <mask id="mask-4" fill="white">
                        <use xlink:href="#path-3"></use>
                    </mask>
                    <use id="Mask" fill="#B2093B" xlink:href="#path-3"></use>
                    <path d="M6.00073277,34 L47.0516089,34 L47.0516089,34 C48.7084631,34 50.0516088,35.3431458 50.0516088,37 C50.0516088,37.4238971 49.9617756,37.8429819 49.7880292,38.2296355 C45.3145435,48.1848929 37.5743844,53.1625217 26.5675521,53.1625217 C15.5657831,53.1625217 7.80010778,48.1894715 3.27052613,38.243371 L3.27052622,38.243371 C2.58383135,36.7355195 3.24951027,34.9564882 4.75736171,34.2697934 C5.14776257,34.0919998 5.57175331,34 6.00073277,34 Z" id="Mask" fill="#DE235B" mask="url(#mask-4)" transform="translate(26.525804, 43.581261) scale(1, -1) translate(-26.525804, -43.581261) "></path>
                </g>
            </g>
        </g>
    </g>
</svg>